<svg t="1722788768647" class="icon" viewBox="0 0 1024 1024" version="1.1" xmlns="http://www.w3.org/2000/svg" p-id="11042" width="200" height="200"><path d="M915.968 136.789333c30.421333 62.890667-62.08 69.589333-57.344 97.664 8.704 50.602667 2.773333 125.738667-3.925333 199.68-11.52 125.312 82.218667 425.386667-113.066667 545.962667-36.778667 22.954667-124.16 35.584-210.346667 37.546667h-0.426666-0.384c-86.186667-1.962667-185.429333-14.592-222.208-37.546667-194.901333-120.576-101.205333-420.650667-112.256-545.962667-7.125333-73.941333-13.056-149.077333-3.968-199.68 4.736-28.074667-87.765333-34.389333-57.301334-97.664 26.069333-54.186667 90.538667-6.314667 106.709334-23.338666C324.096 27.733333 424.533333 4.736 503.594667 2.773333h43.52c78.634667 3.968 179.072 25.301333 262.101333 110.677334 16.213333 17.024 80.256-30.805333 106.752 23.338666z m-428.202667 328.533334c-3.541333 1.621333-9.472 40.362667 8.704 42.325333 12.288 1.194667 45.866667 5.12 53.76 0 15.445333-9.898667 13.866667-33.621333 5.162667-39.552-14.634667-9.472-63.658667-4.693333-67.626667-2.730667zM387.413333 175.189333c-40.746667-4.736-109.141333 33.194667-119.424 113.877334-11.093333 83.797333 87.765333 166.826667 182.656 83.797333 51.029333-44.672 68.821333-182.272-63.232-197.674667z m275.2 0c-132.096 15.402667-114.304 153.002667-63.274666 197.674667 94.848 83.029333 193.706667 0 182.613333-83.797333-9.856-80.64-78.250667-118.613333-119.381333-113.877334z" fill="#8CC5E7" p-id="11043"></path><path d="M525.354667 383.488c24.917333-3.541333 84.608 24.917333 80.64 58.538667-4.736 39.125333-153.813333 44.288-161.706667-2.389334-4.736-28.458667 17.792-46.634667 81.066667-56.149333z m336.426666 315.136c-12.245333-0.426667-20.138667-16.64-20.138666-26.496 0-17.792 2.346667-38.741333 15.402666-47.829333 26.88-18.602667 48.213333 74.709333 4.736 74.325333z m-673.28 0c-43.52 0.384-22.186667-92.928 4.736-74.325333 13.056 9.088 15.402667 30.037333 15.402667 47.786666 0 9.941333-7.893333 26.112-20.138667 26.538667z m590.677334 286.634667c7.893333 11.477333 8.277333 19.370667-4.352 25.301333-48.213333 22.144-91.306667-7.509333-75.093334-15.786667 34.346667-17.408 55.722667-44.714667 79.445334-9.514666z m-508.074667 3.968c23.722667-35.2 45.098667-7.936 79.488 9.472 16.213333 8.32-26.88 37.973333-75.093333 15.786666-12.672-5.888-12.288-13.824-4.394667-25.258666z" fill="#B8937F" p-id="11044"></path><path d="M842.026667 146.304c1.962667-8.32 22.528-12.288 34.005333 1.962667 13.824 16.981333-20.181333 40.32-21.76 30.848-3.925333-25.728-14.592-24.533333-12.245333-32.853334z m-633.770667 0c2.389333 8.277333-8.32 7.082667-12.245333 32.810667-1.578667 9.472-35.584-13.866667-21.76-30.848 11.093333-14.250667 31.616-10.282667 34.005333-1.962667z m463.36 192.512a45.056 45.056 0 1 1 0-90.112 45.056 45.056 0 0 1 0 90.112z m-11.861333-50.218667a14.250667 14.250667 0 1 0 0-28.458666 14.250667 14.250667 0 0 0 0 28.458666z m-175.146667 113.92c4.736-18.218667 21.333333-24.149333 34.816-24.533333 34.389333-0.810667 47.445333 17.792 48.64 32.426667 2.346667 24.874667-94.122667 30.805333-83.456-7.936zM378.666667 338.773333a45.056 45.056 0 1 1 0-90.112 45.056 45.056 0 0 1 0 90.112z m11.861333-50.218666a14.250667 14.250667 0 1 0 0-28.458667 14.250667 14.250667 0 0 0 0 28.458667z" fill="#000000" p-id="11045"></path></svg>